<svg width="512" height="512" viewBox="0 0 512 512" fill="none" xmlns="http://www.w3.org/2000/svg">
<g clip-path="url(#clip0_1_6)">
<rect y="4" width="512" height="512" rx="25" fill="#262626"/>
<path d="M375.1 259.553C374.611 261.506 373.879 263.622 372.902 265.9C371.926 268.016 370.38 270.051 368.264 272.004C366.148 273.957 363.299 275.666 359.719 277.131C356.301 278.433 351.906 279.247 346.535 279.572C343.931 279.898 340.025 280.223 334.816 280.549C329.608 280.712 323.505 281.037 316.506 281.525C310.321 297.15 303.729 312.938 296.73 328.889C289.732 344.839 282.001 360.22 273.537 375.031C265.236 389.68 256.122 403.433 246.193 416.291C236.265 429.149 225.441 440.298 213.723 449.738C202.004 459.341 189.146 466.828 175.148 472.199C161.314 477.733 146.258 480.5 129.982 480.5C122.17 480.5 113.462 479.849 103.859 478.547C94.4193 477.408 85.5488 474.966 77.248 471.223C68.7845 467.479 61.7044 462.027 56.0078 454.865C50.3112 447.867 47.4629 438.589 47.4629 427.033C47.4629 425.731 47.7884 423.046 48.4395 418.977C48.9277 415.07 49.9043 411.001 51.3691 406.77C52.834 402.538 54.7871 398.794 57.2285 395.539C59.5072 392.121 62.4368 390.412 66.0176 390.412C67.8079 390.412 69.1914 391.145 70.168 392.609C71.1445 393.911 71.7956 394.725 72.1211 395.051C77.6549 405.956 83.8398 415.152 90.6758 422.639C97.5117 430.288 104.592 436.473 111.916 441.193C119.24 446.076 126.646 449.576 134.133 451.691C141.62 453.97 148.781 455.109 155.617 455.109C168.15 455.109 179.299 450.471 189.064 441.193C198.993 432.079 208.107 419.709 216.408 404.084C224.709 388.459 232.603 370.393 240.09 349.885C247.577 329.214 255.227 307.567 263.039 284.943C258.97 285.432 254.82 285.839 250.588 286.164C246.356 286.49 242.124 286.896 237.893 287.385C223.407 289.012 211.688 290.396 202.736 291.535C193.947 292.512 188.007 293 184.914 293C182.961 293 181.984 292.674 181.984 292.023C181.984 290.233 182.798 288.199 184.426 285.92C186.053 283.479 188.007 281.2 190.285 279.084C192.727 276.968 195.168 275.178 197.609 273.713C200.051 272.248 202.167 271.516 203.957 271.516C211.118 269.725 220.721 268.016 232.766 266.389C244.81 264.761 257.749 263.296 271.584 261.994C273.863 255.484 276.223 248.892 278.664 242.219C281.105 235.546 283.547 228.954 285.988 222.443C296.079 196.239 306.822 172.964 318.215 152.619C329.608 132.111 341.164 114.208 352.883 98.9082C342.466 97.2806 331.887 94.4323 321.145 90.3633C310.565 86.1315 299.742 81.8997 288.674 77.668C277.769 73.2734 266.62 69.4486 255.227 66.1934C243.996 62.7754 232.603 61.0664 221.047 61.0664C215.513 61.0664 209.979 62.2057 204.445 64.4844C199.074 66.6003 194.191 70.2624 189.797 75.4707C185.402 80.5163 181.822 87.2708 179.055 95.7344C176.288 104.035 174.904 114.289 174.904 126.496C174.904 133.983 175.555 141.958 176.857 150.422C178.322 158.723 180.601 167.349 183.693 176.301C186.786 185.09 190.855 194.123 195.9 203.4C200.946 212.678 207.131 222.036 214.455 231.477C215.106 232.128 215.432 233.267 215.432 234.895C215.106 237.01 214.292 238.801 212.99 240.266C211.688 241.73 209.491 242.463 206.398 242.463C193.703 242.463 183.286 240.917 175.148 237.824C167.173 234.569 160.907 229.93 156.35 223.908C151.792 217.886 148.618 210.48 146.828 201.691C145.201 192.74 144.387 182.648 144.387 171.418C144.387 161.49 144.794 151.805 145.607 142.365C146.584 132.925 148.293 123.892 150.734 115.266C153.339 106.477 156.919 98.0944 161.477 90.1191C166.197 81.9811 172.219 74.25 179.543 66.9258C187.844 58.625 195.819 51.7891 203.469 46.418C211.281 40.8841 218.768 36.4896 225.93 33.2344C233.091 29.8164 239.927 27.4564 246.438 26.1543C253.111 24.6895 259.458 23.957 265.48 23.957C276.385 23.957 286.802 25.666 296.73 29.084C306.659 32.3392 316.343 36.2454 325.783 40.8027C335.386 45.1973 344.908 49.7546 354.348 54.4746C363.788 59.0319 373.635 62.5312 383.889 64.9727C395.77 53.9049 407.245 45.7669 418.312 40.5586C429.543 35.1875 439.797 32.502 449.074 32.502C452.329 32.502 454.852 33.3158 456.643 34.9434C458.596 36.571 459.572 38.7682 459.572 41.5352C459.572 45.4414 458.107 50.0801 455.178 55.4512C452.248 60.8223 448.016 66.2747 442.482 71.8086C436.949 77.1797 430.031 82.2253 421.73 86.9453C413.592 91.5026 404.315 95.002 393.898 97.4434C388.202 108.023 381.854 120.555 374.855 135.041C368.02 149.527 360.695 166.372 352.883 185.578C348.651 195.832 344.338 206.981 339.943 219.025C335.712 231.07 331.073 243.765 326.027 257.111C336.281 256.298 345.314 255.646 353.127 255.158C361.102 254.67 366.88 254.426 370.461 254.426C372.251 254.426 373.472 254.751 374.123 255.402C374.774 255.891 375.1 257.274 375.1 259.553ZM438.576 43C435.484 43 431.659 44.9531 427.102 48.8594C422.544 52.6029 417.173 58.9505 410.988 67.9023C417.173 67.7396 422.3 66.6003 426.369 64.4844C430.438 62.3685 433.612 60.0898 435.891 57.6484C438.332 55.207 440.041 52.847 441.018 50.5684C441.994 48.2897 442.482 46.9062 442.482 46.418C442.482 44.1393 441.18 43 438.576 43Z" fill="white"/>
</g>
<defs>
<clipPath id="clip0_1_6">
<rect width="512" height="512" fill="white"/>
</clipPath>
</defs>
</svg>
